<svg version="1.1"
     width="1920px" height="1080px"
    baseProfile="full"
     xmlns="http://www.w3.org/2000/svg"
     xmlns:xlink="http://www.w3.org/1999/xlink"
     xmlns:ev="http://www.w3.org/2001/xml-events">
<g stroke="black" stroke-width="1">
<g id="Sphere">
<line x1="551.2871" y1="772.9916" x2="503.1137" y2="788.0709"/>
<line x1="451.9" y1="794.05" x2="503.1137" y2="788.0709"/>
<line x1="451.9" y1="794.05" x2="441.4465" y2="793.1746"/>
<line x1="631.0127" y1="719.1127" x2="594.2487" y2="749.5219"/>
<line x1="594.2487" y1="749.5219" x2="551.2871" y2="772.9916"/>
<line x1="441.4465" y1="793.1746" x2="390.4754" y2="788.0604"/>
<line x1="342.6767" y1="773.1865" x2="390.4754" y2="788.0604"/>
<line x1="300.0129" y1="749.8622" x2="342.6767" y2="773.1865"/>
<line x1="263.3347" y1="719.4562" x2="300.0129" y2="749.8622"/>
<line x1="451.9" y1="285.95" x2="441.4104" y2="286.4836"/>
<line x1="451.9" y1="285.95" x2="503.2875" y2="291.6116"/>
<line x1="551.6277" y1="306.7305" x2="503.2875" y2="291.6116"/>
<line x1="594.7522" y1="330.2252" x2="551.6277" y2="306.7305"/>
<line x1="631.6106" y1="360.7483" x2="594.7522" y2="330.2252"/>
<line x1="262.6945" y1="360.4005" x2="299.4651" y2="329.8669"/>
<line x1="299.4651" y1="329.8669" x2="342.3078" y2="306.5153"/>
<line x1="342.3078" y1="306.5153" x2="390.2629" y2="291.5961"/>
<line x1="441.4104" y1="286.4836" x2="390.2629" y2="291.5961"/>
<line x1="631.0127" y1="719.1127" x2="661.4218" y2="682.3486"/>
<line x1="661.4218" y1="682.3486" x2="684.8916" y2="639.3871"/>
<line x1="684.8916" y1="639.3871" x2="699.9709" y2="591.2141"/>
<line x1="699.9709" y1="591.2141" x2="706.0223" y2="540"/>
<line x1="706.0223" y1="540" x2="700.9004" y2="491.0552"/>
<line x1="705.95" y1="540" x2="700.9004" y2="491.0552"/>
<line x1="705.95" y1="540" x2="700.6953" y2="489.0393"/>
<line x1="685.5466" y1="440.6873" x2="700.6953" y2="489.0393"/>
<line x1="662.1251" y1="397.6191" x2="685.5466" y2="440.6873"/>
<line x1="631.6106" y1="360.7483" x2="662.1251" y2="397.6191"/>
<line x1="263.3347" y1="719.4562" x2="232.702" y2="682.5513"/>
<line x1="230.6518" y1="678.8466" x2="232.702" y2="682.5513"/>
<line x1="230.6518" y1="678.8466" x2="208.1569" y2="637.031"/>
<line x1="208.1569" y1="637.031" x2="232.702" y2="682.5513"/>
<line x1="232.702" y1="682.5513" x2="208.9247" y2="639.4344"/>
<line x1="208.1569" y1="637.031" x2="208.9247" y2="639.4344"/>
<line x1="208.1569" y1="637.031" x2="193.695" y2="589.9368"/>
<line x1="193.695" y1="589.9368" x2="208.9247" y2="639.4344"/>
<line x1="208.9247" y1="639.4344" x2="193.6022" y2="591.1871"/>
<line x1="187.4787" y1="540.4583" x2="193.6022" y2="591.1871"/>
<line x1="187.4787" y1="540.4583" x2="192.8309" y2="489.0761"/>
<line x1="207.4129" y1="443.0621" x2="192.8309" y2="489.0761"/>
<line x1="207.4129" y1="443.0621" x2="208.2089" y2="440.6407"/>
<line x1="229.8945" y1="401.1163" x2="208.2089" y2="440.6407"/>
<line x1="229.8945" y1="401.1163" x2="231.9389" y2="397.4107"/>
<line x1="262.6945" y1="360.4005" x2="231.9389" y2="397.4107"/>
</g>
<g id="Cylinder">
<line x1="1234.981" y1="277.8491" x2="1281.464" y2="270.0848"/>
<line x1="1234.981" y1="802.1509" x2="1281.464" y2="809.9152"/>
<line x1="1281.464" y1="270.0848" x2="1350.353" y2="263.5878"/>
<line x1="1281.464" y1="809.9152" x2="1350.353" y2="816.4122"/>
<line x1="1350.353" y1="263.5878" x2="1434.745" y2="259.249"/>
<line x1="1350.353" y1="816.4122" x2="1434.745" y2="820.751"/>
<line x1="1434.745" y1="259.249" x2="1524.556" y2="257.7222"/>
<line x1="1434.745" y1="820.751" x2="1524.556" y2="822.2778"/>
<line x1="1524.556" y1="257.7222" x2="1608.259" y2="259.249"/>
<line x1="1524.556" y1="822.2778" x2="1608.259" y2="820.751"/>
<line x1="1608.259" y1="259.249" x2="1675.296" y2="263.5878"/>
<line x1="1608.259" y1="820.751" x2="1675.296" y2="816.4122"/>
<line x1="1675.296" y1="263.5878" x2="1718.197" y2="270.0848"/>
<line x1="1675.296" y1="816.4122" x2="1718.197" y2="809.9152"/>
<line x1="1718.197" y1="270.0848" x2="1733.622" y2="277.8491"/>
<line x1="1733.622" y1="802.1509" x2="1733.622" y2="277.8491"/>
<line x1="1718.197" y1="809.9152" x2="1733.622" y2="802.1509"/>
<line x1="1733.622" y1="277.8491" x2="1722.15" y2="285.95"/>
<line x1="1733.622" y1="802.1509" x2="1722.15" y2="794.05"/>
<line x1="1722.15" y1="285.95" x2="1687.243" y2="293.5653"/>
<line x1="1722.15" y1="794.05" x2="1687.243" y2="786.4348"/>
<line x1="1687.243" y1="293.5653" x2="1634.013" y2="300.0537"/>
<line x1="1687.243" y1="786.4348" x2="1634.013" y2="779.9463"/>
<line x1="1634.013" y1="300.0537" x2="1568.221" y2="304.9647"/>
<line x1="1634.013" y1="779.9463" x2="1568.221" y2="775.0353"/>
<line x1="1568.221" y1="304.9647" x2="1495.661" y2="308.0132"/>
<line x1="1568.221" y1="775.0353" x2="1495.661" y2="771.9868"/>
<line x1="1495.661" y1="308.0132" x2="1421.909" y2="309.0455"/>
<line x1="1495.661" y1="771.9868" x2="1421.909" y2="770.9546"/>
<line x1="1421.909" y1="309.0455" x2="1352.286" y2="308.0132"/>
<line x1="1421.909" y1="770.9546" x2="1352.286" y2="771.9868"/>
<line x1="1352.286" y1="308.0132" x2="1291.92" y2="304.9647"/>
<line x1="1352.286" y1="771.9868" x2="1291.92" y2="775.0353"/>
<line x1="1291.92" y1="304.9647" x2="1245.772" y2="300.0537"/>
<line x1="1291.92" y1="775.0353" x2="1245.772" y2="779.9463"/>
<line x1="1245.772" y1="300.0537" x2="1218.496" y2="293.5653"/>
<line x1="1245.772" y1="779.9463" x2="1218.496" y2="786.4348"/>
<line x1="1218.496" y1="293.5653" x2="1214.05" y2="285.95"/>
<line x1="1214.05" y1="794.05" x2="1214.05" y2="285.95"/>
<line x1="1218.496" y1="786.4348" x2="1214.05" y2="794.05"/>
<line x1="1234.981" y1="277.8491" x2="1214.05" y2="285.95"/>
<line x1="1234.981" y1="802.1509" x2="1214.05" y2="794.05"/>
</g>
</g></svg>
